<svg width="21" height="22" viewBox="0 0 21 22" fill="none" xmlns="http://www.w3.org/2000/svg">
<path d="M10.9899 0.95006C5.50234 0.950107 1.03 5.42247 1.03 10.9101C1.03 12.6619 1.48865 14.3638 2.34631 15.8669L0.951757 20.9869L0.929015 21.0704L1.01271 21.0484L6.24354 19.6735C7.69643 20.4613 9.32823 20.8801 10.99 20.8801C16.4776 20.8801 20.95 16.4077 20.95 10.9201C20.95 8.25687 19.9148 5.75418 18.0354 3.87479C17.114 2.94404 16.0164 2.20608 14.8068 1.70393C13.5972 1.20178 12.2996 0.945508 10.9899 0.95006ZM10.9899 0.95006C10.9899 0.95006 10.99 0.95006 10.99 0.95006V1.00006L10.9898 0.95006C10.9899 0.95006 10.9899 0.95006 10.9899 0.95006ZM6.47729 17.7717L3.44104 18.5697L4.24823 15.6132L4.25411 15.5917L4.24201 15.573L4.04238 15.2635C4.04231 15.2634 4.04225 15.2633 4.04219 15.2632C3.22503 13.9582 2.79113 12.4498 2.79 10.91C2.79002 6.39765 6.46763 2.72006 10.98 2.72006C13.1667 2.72006 15.2239 3.57476 16.7645 5.1253L16.7647 5.1255C17.5275 5.88479 18.132 6.78794 18.5432 7.78259C18.9544 8.77723 19.164 9.8436 19.16 10.9199L19.16 10.9203C19.1799 15.4324 15.5025 19.1001 10.99 19.1001C9.51912 19.1001 8.07799 18.7026 6.8157 17.9572C6.81561 17.9571 6.81552 17.9571 6.81542 17.957L6.51572 17.7772L6.49766 17.7663L6.47729 17.7717ZM13.8389 12.1338L13.839 12.1337L13.8364 12.1328C13.7231 12.0934 13.615 12.0589 13.512 12.0704C13.4036 12.0824 13.3096 12.1435 13.2192 12.2712L13.2187 12.2719C13.0506 12.5191 12.5825 13.077 12.4424 13.2371L12.4424 13.2371L12.4414 13.2383C12.3765 13.3171 12.3147 13.3549 12.2455 13.3629C12.1739 13.3712 12.0847 13.349 11.9631 13.2857L11.9631 13.2857L11.9616 13.285C11.9246 13.2672 11.8762 13.2464 11.8175 13.2211C11.474 13.0734 10.7804 12.7751 9.98332 12.0628L9.98328 12.0627C9.24995 11.4087 8.76338 10.6052 8.61327 10.355C8.54896 10.2399 8.54808 10.1602 8.5708 10.097C8.59519 10.0291 8.64919 9.97158 8.71535 9.90541C8.79192 9.82885 8.8835 9.71816 8.97128 9.61208C9.01158 9.56336 9.05109 9.51562 9.08796 9.4726C9.2019 9.33967 9.25564 9.23155 9.32468 9.09266C9.3312 9.07954 9.33786 9.06614 9.34472 9.05242L9.34524 9.05135C9.43441 8.86186 9.3882 8.70466 9.32472 8.5777C9.26592 8.46011 8.76698 7.24289 8.56642 6.74149L8.56643 6.74149L8.56615 6.74083C8.46382 6.49523 8.35476 6.37749 8.24291 6.32374C8.15774 6.28282 8.07215 6.28199 8.00878 6.28137C7.99191 6.28121 7.97662 6.28106 7.96333 6.28017L7.96333 6.28006H7.96H7.48C7.29836 6.28006 7.02415 6.34431 6.7832 6.60621L6.78319 6.6062L6.78246 6.60703C6.76557 6.62623 6.7461 6.64759 6.72456 6.67122C6.46628 6.95456 5.91 7.56484 5.91 8.71006C5.91 9.33132 6.1363 9.93952 6.37542 10.4102C6.61241 10.8767 6.86416 11.2123 6.92804 11.2975L6.92956 11.2995C6.93478 11.3069 6.94277 11.3186 6.95349 11.3342C7.19316 11.6847 8.79465 14.0266 11.18 15.0559C11.7722 15.3168 12.234 15.4675 12.595 15.5778C13.1951 15.7709 13.7435 15.74 14.1769 15.6796L14.1772 15.6795C14.4267 15.6432 14.801 15.4894 15.137 15.2734C15.4717 15.0582 15.7813 14.7731 15.8871 14.4667C15.9935 14.1728 16.047 13.9011 16.0648 13.688C16.0738 13.5814 16.0739 13.4887 16.067 13.4146C16.0603 13.343 16.0465 13.2814 16.0222 13.2432C15.9801 13.1771 15.9158 13.1321 15.836 13.0897C15.7881 13.0642 15.7307 13.0377 15.6656 13.0077C15.6239 12.9884 15.5791 12.9678 15.5316 12.945C15.4713 12.916 15.3533 12.8585 15.2059 12.7867C14.7478 12.5635 14.0068 12.2024 13.8389 12.1338Z" fill="black" stroke="black" stroke-width="0.1"/>
</svg>
