<svg width="12" height="14" viewBox="0 0 12 14" fill="none" xmlns="http://www.w3.org/2000/svg">
<path d="M1.41177 14C1.02353 14 0.69106 13.8628 0.414354 13.5884C0.137648 13.314 -0.00046939 12.9845 1.19844e-06 12.6V2.8H1.41177V12.6H9.17647V14H1.41177ZM4.23529 11.2C3.84706 11.2 3.51459 11.0628 3.23788 10.7884C2.96118 10.514 2.82306 10.1845 2.82353 9.8V1.4C2.82353 1.015 2.96188 0.685301 3.23859 0.410901C3.51529 0.136501 3.84753 -0.000465478 4.23529 1.18846e-06H10.5882C10.9765 1.18846e-06 11.3089 0.137201 11.5856 0.411601C11.8624 0.686001 12.0005 1.01547 12 1.4V9.8C12 10.185 11.8616 10.5147 11.5849 10.7891C11.3082 11.0635 10.976 11.2005 10.5882 11.2H4.23529ZM4.23529 9.8H10.5882V1.4H4.23529V9.8Z" fill="black"/>
</svg>
