<svg width="22" height="20" viewBox="0 0 22 20" fill="none" xmlns="http://www.w3.org/2000/svg">
<path d="M20.7883 1.35782C20.5802 1.1815 20.3282 1.06486 20.0591 1.02029C19.7901 0.975721 19.514 1.00489 19.2601 1.1047L1.95389 7.90157C1.65034 8.01722 1.39322 8.22945 1.22213 8.50557C1.05103 8.78169 0.975447 9.1064 1.00701 9.4297C1.03517 9.75287 1.16734 10.0582 1.38369 10.2999C1.60004 10.5416 1.88892 10.7067 2.20701 10.7703L6.60389 11.6422V17.1359C6.60373 17.4331 6.69186 17.7237 6.85711 17.9707C7.02235 18.2178 7.25725 18.4101 7.53201 18.5234C7.71385 18.5966 7.90788 18.6348 8.10389 18.6359C8.3009 18.6366 8.49606 18.598 8.67797 18.5224C8.85987 18.4467 9.02486 18.3355 9.16326 18.1953L11.6008 15.7672L15.2851 19.0109C15.5571 19.2508 15.9068 19.3841 16.2695 19.3859C16.429 19.3892 16.5878 19.3638 16.7383 19.3109C16.9857 19.2327 17.2083 19.0912 17.3843 18.9004C17.5602 18.7097 17.6833 18.4763 17.7414 18.2234L21.2664 2.8297C21.328 2.56407 21.316 2.28668 21.2318 2.02734C21.1476 1.768 20.9942 1.53653 20.7883 1.35782ZM7.17576 10.2266L2.50701 9.29845L15.5945 4.15157L7.17576 10.2266ZM8.10389 17.1359V12.6922L10.4664 14.7734L8.10389 17.1359ZM16.2789 17.8859L8.55389 11.0891L19.682 3.0547L16.2789 17.8859Z" fill="black" stroke="black" stroke-width="0.3"/>
</svg>
