<svg width="97" height="28" viewBox="0 0 97 28" fill="none" xmlns="http://www.w3.org/2000/svg">
<path d="M3.29754 12.0562L0.372925 14.9999H9.64569L12.5 12.0562H3.29754Z" fill="#3C72FA"/>
<path d="M18.9246 12.0562L16.0352 14.9999H27.243L30.1127 12.0562H18.9246Z" fill="#3C72FA"/>
<path d="M12.5 12.0562H3.25518L1.48474 5.49903C0.736212 2.72671 2.82435 0 5.69595 0H12.5144C20.3029 0 27.289 4.79087 30.0951 12.0562H18.9283C18.4228 10.612 17.0598 9.64498 15.5297 9.64498H14.508C13.2324 9.64498 12.2691 10.8017 12.5 12.0562Z" fill="#1B1B1D"/>
<path d="M9.64499 14.9999H0.361694L2.79497 24.733C3.1363 26.0983 4.36304 27.0562 5.77039 27.0562H16.6567C23.1015 27.0562 28.0779 21.3909 27.2471 14.9999H16.0391C16.3433 16.2255 15.416 17.4112 14.1532 17.4112H12.0629C11.1851 17.4112 10.3957 16.8767 10.0697 16.0617L9.64499 14.9999Z" fill="#1B1B1D"/>
<path d="M41.793 5.08717C42.7581 5.08717 43.7083 5.22518 44.6438 5.50121C45.594 5.76271 46.4404 6.21307 47.1828 6.8523C47.94 7.477 48.5488 8.30508 49.0091 9.33656C49.4694 10.368 49.6995 11.6392 49.6995 13.1501V14.5666C49.6995 16.0775 49.4694 17.3487 49.0091 18.3801C48.5488 19.4116 47.94 20.247 47.1828 20.8862C46.4404 21.5109 45.594 21.9613 44.6438 22.2373C43.7083 22.4988 42.7581 22.6295 41.793 22.6295H38.4744C37.8063 22.6295 37.2495 22.5714 36.804 22.4552C36.3586 22.3245 36.0022 22.1211 35.735 21.845C35.4677 21.569 35.2747 21.2131 35.1559 20.7772C35.052 20.3414 35 19.8111 35 19.1864V8.53027C35 7.90557 35.052 7.3753 35.1559 6.93947C35.2747 6.50363 35.4677 6.1477 35.735 5.87167C36.0022 5.59564 36.3586 5.39952 36.804 5.28329C37.2495 5.15254 37.8063 5.08717 38.4744 5.08717H41.793ZM45.156 12.8015C45.156 11.523 44.8368 10.5496 44.1983 9.88135C43.5599 9.19855 42.7135 8.85714 41.6593 8.85714H40.1894C39.937 8.85714 39.7662 8.90073 39.6771 8.98789C39.588 9.06053 39.5435 9.2276 39.5435 9.4891V18.2276C39.5435 18.4891 39.588 18.6634 39.6771 18.7506C39.7662 18.8232 39.937 18.8596 40.1894 18.8596H41.6593C42.7135 18.8596 43.5599 18.5254 44.1983 17.8571C44.8368 17.1743 45.156 16.1937 45.156 14.9153V12.8015Z" fill="#1B1B1D"/>
<path d="M51.7024 7.17918C51.7024 6.42373 51.9326 5.87167 52.3929 5.523C52.8531 5.17433 53.3951 5 54.0187 5C54.6423 5 55.1843 5.17433 55.6446 5.523C56.1049 5.87167 56.335 6.42373 56.335 7.17918V20.3132C56.335 21.5925 55.298 22.6295 54.0187 22.6295C52.7395 22.6295 51.7024 21.5925 51.7024 20.3133V7.17918Z" fill="#1B1B1D"/>
<path d="M58.5972 7.17918C58.5972 6.42373 58.8273 5.87167 59.2876 5.523C59.7479 5.17433 60.2898 5 60.9135 5C61.5371 5 62.079 5.17433 62.5393 5.523C62.9996 5.87167 63.2297 6.42373 63.2297 7.17918V20.3132C63.2297 21.5925 62.1927 22.6295 60.9135 22.6295C59.6342 22.6295 58.5972 21.5925 58.5972 20.3132V7.17918Z" fill="#1B1B1D"/>
<path d="M76.0934 15.7651V7.07022C76.0934 6.40194 76.2938 5.89346 76.6947 5.54479C77.1105 5.1816 77.5856 5 78.1201 5C78.6547 5 79.1224 5.1816 79.5233 5.54479C79.939 5.89346 80.1469 6.40194 80.1469 7.07022V20.799C80.1469 21.1332 80.0801 21.4237 79.9464 21.6707C79.8128 21.9177 79.6421 22.1283 79.4342 22.3027C79.2263 22.477 78.9887 22.615 78.7215 22.7167C78.4691 22.8184 78.2166 22.8765 77.9642 22.891C77.4297 22.9346 76.8803 22.8475 76.3161 22.6295C75.7519 22.4261 75.3287 22.092 75.0466 21.6271L69.6122 12.2131V20.6028C69.6122 21.7221 68.7048 22.6295 67.5855 22.6295C66.4661 22.6295 65.5587 21.7221 65.5587 20.6028V7.22276C65.5587 6.88862 65.6256 6.5908 65.7592 6.3293C65.8928 6.0678 66.0636 5.84988 66.2714 5.67555C66.4942 5.48668 66.7392 5.3414 67.0064 5.23971C67.2737 5.13801 67.5335 5.07264 67.7859 5.04358C68.3205 4.98547 68.8624 5.06537 69.4118 5.28329C69.9612 5.50121 70.3769 5.84261 70.659 6.30751L76.0934 15.7651Z" fill="#1B1B1D"/>
<path d="M97 16.8111C97 17.9153 96.8144 18.8596 96.4432 19.6441C96.072 20.4286 95.5672 21.0678 94.9287 21.5617C94.2902 22.0557 93.5478 22.4189 92.7015 22.6513C91.8552 22.8838 90.9569 23 90.0066 23C89.0415 23 88.0912 22.8765 87.1558 22.6295C86.2352 22.3971 85.4111 22.0194 84.6836 21.4964C83.9709 20.9588 83.3918 20.2688 82.9464 19.4261C82.5009 18.5835 82.2782 17.5666 82.2782 16.3753V11.6247C82.2782 10.4189 82.5009 9.39467 82.9464 8.55206C83.3918 7.70944 83.9783 7.02663 84.7059 6.50363C85.4334 5.98063 86.2649 5.60291 87.2003 5.37046C88.1357 5.12349 89.0934 5 90.0734 5C91.0979 5 92.0333 5.10169 92.8797 5.30508C93.726 5.50847 94.3645 5.76271 94.7951 6.0678C95.2554 6.38741 95.5746 6.78692 95.7528 7.26634C95.9309 7.73123 95.8864 8.19613 95.6191 8.66102C95.3964 9.03874 95.0995 9.30751 94.7283 9.46731C94.3571 9.62712 93.9784 9.6707 93.5924 9.59806C93.34 9.55448 93.1098 9.4891 92.902 9.40194C92.7089 9.30024 92.5307 9.21307 92.3674 9.14044C91.8477 8.95157 91.0831 8.85714 90.0734 8.85714C89.6874 8.85714 89.3013 8.92252 88.9153 9.05327C88.5292 9.16949 88.1803 9.35109 87.8685 9.59806C87.5567 9.83051 87.3043 10.1356 87.1112 10.5133C86.9182 10.891 86.8217 11.3269 86.8217 11.8208V16.1792C86.8217 16.6876 86.9108 17.1307 87.089 17.5085C87.2671 17.8717 87.5047 18.1768 87.8017 18.4237C88.1135 18.6562 88.455 18.8378 88.8262 18.9685C89.2122 19.0847 89.6057 19.1429 90.0066 19.1429C90.3778 19.1429 90.7416 19.0993 91.0979 19.0121C91.4543 18.9104 91.7661 18.7724 92.0333 18.5981C92.3006 18.4092 92.5159 18.1768 92.6792 17.9007C92.8426 17.6102 92.9242 17.2688 92.9242 16.8765V16.615C92.9242 16.3971 92.8871 16.2591 92.8129 16.201C92.7535 16.1429 92.6198 16.1138 92.412 16.1138H91.677C91.3503 16.1138 91.0756 16.063 90.8529 15.9613C90.6302 15.845 90.4446 15.6998 90.2961 15.5254C90.1625 15.3511 90.0586 15.155 89.9843 14.937C89.9249 14.7191 89.8952 14.5012 89.8952 14.2833C89.8952 14.0654 89.9249 13.8475 89.9843 13.6295C90.0586 13.3971 90.1625 13.1937 90.2961 13.0194C90.4446 12.8305 90.6302 12.678 90.8529 12.5617C91.0905 12.4455 91.3652 12.3874 91.677 12.3874H93.7037C94.3571 12.3874 94.899 12.4455 95.3296 12.5617C95.7602 12.6634 96.0943 12.845 96.3318 13.1065C96.5843 13.3535 96.755 13.6877 96.8441 14.109C96.948 14.5157 97 15.0242 97 15.6344V16.8111Z" fill="#1B1B1D"/>
</svg>
